<?xml version="1.0" encoding="utf-8"?>
<!-- Generator: Adobe Illustrator 24.0.1, SVG Export Plug-In . SVG Version: 6.00 Build 0)  -->
<svg version="1.1" id="Layer_1" xmlns="http://www.w3.org/2000/svg" xmlns:xlink="http://www.w3.org/1999/xlink" x="0px" y="0px"
	 width="394.9px" height="104px" viewBox="0 0 394.9 104" style="enable-background:new 0 0 394.9 104;" xml:space="preserve">
<style type="text/css">
	.st0{fill:#17161A;}
	.st1{fill:none;stroke:#0D0C0E;stroke-width:176.2099;stroke-miterlimit:10;}
	.st2{fill:#267EF8;}
	.st3{fill:#FFFFFF;}
	.st4{fill:none;stroke:#0D0C0E;stroke-width:151;stroke-miterlimit:10;}
	.st5{fill:#0D0C0E;}
</style>
<g>
	<path class="st0" d="M0,69.6h28.1c0,7.1,5.5,10.5,11.7,10.5c5.7,0,11.2-3,11.2-8.4c0-6.2-7.7-8-17.1-10.3
		C19.5,57.8,1.3,53.4,1.3,30.8C1.3,11.3,15.6,0.2,39,0.2c23.7,0,37.4,12.2,37.4,32.3H48.9c0-6.3-4.7-9.2-10.3-9.2
		c-4.9,0-9.5,2.1-9.5,6.7c0,5.6,7.5,7.5,16.8,9.8c14.6,3.8,33.6,8.6,33.6,31.2c0,21.6-16.6,32.9-39.6,32.9C15.7,104,0,91.1,0,69.6z"
		/>
	<path class="st0" d="M106.9,37.9h27.6v63.6h-27.6V37.9z"/>
	<path class="st0" d="M106.9,2.5h27.6v25.6h-27.6V2.5z"/>
	<path class="st0" d="M269.1,48.6c0,32.4-21.2,55.4-52.2,55.4c-30.3,0-52.8-21.8-52.8-51.9S186.2,0,216.7,0
		c26,0,47.2,16.2,51.4,39.3h-28.6c-3.6-8.3-12.4-13.7-22.5-13.7c-14.8,0-24.8,10.7-24.8,26.5c0,15.7,9.8,26.4,24.8,26.4
		c10.4,0,19.3-5,22.5-12.7h-24.6V48.6L269.1,48.6z"/>
	<path class="st0" d="M394.9,2.5v99h-22.6L333,47.8v53.7h-26.4v-99h23.9l38,52v-52H394.9z"/>
</g>
</svg>
