<?xml version="1.0" encoding="UTF-8" standalone="no"?>
<!-- Created with Inkscape (http://www.inkscape.org/) -->

<svg
   version="1.1"
   id="svg2"
   xml:space="preserve"
   width="167"
   height="41.400002"
   viewBox="0 0 167 41.400002"
   sodipodi:docname="Yorgans logo.eps"
   xmlns:inkscape="http://www.inkscape.org/namespaces/inkscape"
   xmlns:sodipodi="http://sodipodi.sourceforge.net/DTD/sodipodi-0.dtd"
   xmlns="http://www.w3.org/2000/svg"
   xmlns:svg="http://www.w3.org/2000/svg"><defs
     id="defs6" /><sodipodi:namedview
     id="namedview4"
     pagecolor="#ffffff"
     bordercolor="#666666"
     borderopacity="1.0"
     inkscape:pageshadow="2"
     inkscape:pageopacity="0.0"
     inkscape:pagecheckerboard="0" /><g
     id="g8"
     inkscape:groupmode="layer"
     inkscape:label="ink_ext_XXXXXX"
     transform="matrix(1.3333333,0,0,-1.3333333,0,41.4)"><g
       id="g10"
       transform="scale(0.1)"><path
         d="m 176.344,280.742 20.996,-3.301 c 1.695,-0.296 2.207,-1.199 1.601,-2.898 l -34.003,-66.996 -37.696,66.996 c -0.996,1.699 -0.5,2.602 1.395,2.898 l 20.508,3.301 v 1.004 h -44.903 v -1.004 l 2.004,-1.097 c 2.695,-1.602 5,-3.903 6.793,-6.899 l 40.402,-71.601 v -47.301 c 0,-3.102 -1.601,-5 -4.902,-5.703 l -12.695,-2.297 v -0.797 h 48.496 v 0.797 l -12.899,2.297 c -3.203,0.703 -4.699,2.601 -4.699,5.703 l -0.207,50.601 35.11,68.102 c 1.496,2.996 3.593,5.398 6.496,7.098 l 1.504,1.097 v 1.004 h -33.301 v -1.004"
         style="fill:#231f20;fill-opacity:1;fill-rule:nonzero;stroke:none"
         id="path12" /><path
         d="m 347.738,164.543 c -9.394,-12.301 -21.699,-18.5 -37.097,-18.5 -15.5,0 -27.903,6.102 -37.297,18.402 -9.403,12.301 -14.102,28.696 -14.102,49.2 0,20.496 4.699,36.996 13.996,49.3 9.305,12.301 21.805,18.399 37.403,18.399 15.203,0 27.597,-6.199 37,-18.598 9.406,-12.5 14.199,-28.805 14.199,-49.101 0,-20.403 -4.695,-36.7 -14.102,-49.102 z m -37.293,120.102 c -19.308,0 -34.804,-6.504 -46.699,-19.598 -11.808,-13.102 -17.707,-30.203 -17.707,-51.402 0,-21.301 5.899,-38.399 17.707,-51.403 11.895,-12.996 27.391,-19.496 46.699,-19.496 19.395,0 35,6.5 46.895,19.496 11.805,13.004 17.703,30.102 17.703,51.403 0,21.199 -5.898,38.3 -17.801,51.402 -12.004,13.094 -27.5,19.598 -46.797,19.598"
         style="fill:#231f20;fill-opacity:1;fill-rule:nonzero;stroke:none"
         id="path14" /><path
         d="m 518.941,168.344 c 1.297,-6.598 1.504,-11.797 0.399,-15.903 -0.996,-3.996 -2.996,-6 -5.996,-6 -4.199,0 -10.106,5.403 -17.606,16.403 -4.203,6.097 -12.199,20.297 -24.203,42.601 0.403,-0.199 1.106,-0.199 2.102,-0.199 12.004,0 21.601,3.598 28.906,10.899 7.297,7.3 10.996,16.8 10.996,28.699 0,12.199 -3.699,22 -11.199,29.402 -7.402,7.297 -17.004,10.801 -28.703,10.399 -14.297,-0.602 -24.199,-7.403 -29.602,-20.301 v 17.402 H 426.84 v -0.801 l 0.207,-0.203 c 2.391,-1.801 3.691,-4.5 3.691,-7.996 V 153.844 c 0,-3.399 -1.3,-6 -3.691,-7.801 l -0.207,-0.199 v -0.797 h 40.598 v 0.797 l -18.594,2.5 c -3.203,0.398 -4.809,2.199 -4.809,5.5 v 98.398 c 0.903,8.598 3.91,15.504 9.106,20.801 5.203,5.297 11.406,8 18.394,8.102 8.703,0 15.61,-3.2 20.707,-9.704 5,-6.597 7.598,-15.398 7.598,-26.597 0,-11.504 -2.598,-20.399 -7.695,-26.899 -5.207,-6.402 -12.207,-9.601 -21.008,-9.601 -6.797,0 -12.293,1.801 -16.59,5.398 l -1.008,-2.902 26.602,-48.598 c 7.101,-13.101 16.601,-19.695 28.3,-19.695 7.102,0 12.598,2.195 16.399,6.594 l -3.899,19.703 -2,-0.5"
         style="fill:#231f20;fill-opacity:1;fill-rule:nonzero;stroke:none"
         id="path16" /><path
         d="m 586.742,162.547 c 3.996,0.398 8.098,0.594 12.293,0.594 h 2.406 c -1.3,1.402 -2.597,2.804 -3.8,4.3 -10.301,12.903 -15.399,28.301 -15.399,46.204 0,8.398 0.899,16.5 2.801,24.3 1.895,7.696 4.797,14.899 8.703,21.5 3.895,6.7 9.297,11.996 16.094,16.098 6.805,4 14.707,6 23.504,6 10.597,0 19.492,-2.801 26.797,-8.5 7.297,-5.699 10.8,-12.402 10.5,-20.199 -0.098,-1.403 -0.703,-3.102 -1.7,-5 -1.105,-1.899 -2.804,-4.102 -5.195,-6.801 -2.402,-2.703 -4.406,-4.801 -5.801,-6.398 -1.504,-1.504 -4.004,-4.004 -7.402,-7.301 -3.398,-3.301 -5.305,-5.199 -5.801,-5.703 l 0.899,-1 37.898,34.3 c -4.793,9 -11.797,16.204 -20.898,21.602 -9.102,5.402 -18.797,8.102 -29.102,8.102 -20,0 -35.801,-6.7 -47.293,-20.2 -11.504,-13.5 -17.305,-30.402 -17.305,-50.8 0,-20.403 5.704,-37.204 17.196,-50.504 0.207,-0.196 0.398,-0.395 0.605,-0.594"
         style="fill:#231f20;fill-opacity:1;fill-rule:nonzero;stroke:none"
         id="path18" /><path
         d="m 663.941,153.742 c 4.297,-0.996 8.497,-2.101 12.704,-3.199 0.097,0 0.293,-0.098 0.597,-0.098 2.899,-0.902 5.801,-1.601 8.699,-2.5 v 47.5 c 0,3.098 1.204,5.7 3.704,7.797 l 0.195,0.203 v 0.801 h -65.996 v -0.801 l 43.894,-2.902 c 3.301,-0.297 4.903,-2 4.903,-5.098 v -26 c -0.594,-6.8 -3.496,-12.101 -8.7,-15.703"
         style="fill:#231f20;fill-opacity:1;fill-rule:nonzero;stroke:none"
         id="path20" /><path
         d="m 746.039,169.445 12.5,34 26.203,-1.402 c 1.102,0.902 2.196,1.699 3.203,2.5 h -29.004 l 25.606,69.598 c 0,0 10.496,-30.399 20,-57.196 4.09,2.899 7.891,5.399 11.394,7.5 l -22.402,60.2 h -33.992 v -0.903 l 17.793,-2.199 c 2.207,-0.102 4.101,-1.297 5.605,-3.5 l -42.5,-113.5 c 1.895,1.699 3.7,3.301 5.594,4.902"
         style="fill:#231f20;fill-opacity:1;fill-rule:nonzero;stroke:none"
         id="path22" /><path
         d="m 818.746,178.645 6.192,-17.801 c 1.406,-3.899 1.308,-7 -0.391,-9.297 -1.711,-2.406 -4.902,-5.402 -9.102,-5.305 l 0.293,-1.097 33.008,-0.098 v 0.797 l -1.504,1 c -2.101,1.398 -3.605,3.402 -4.504,5.801 l -13.992,37.5 c -3.301,-3.504 -6.601,-7.399 -10,-11.5"
         style="fill:#231f20;fill-opacity:1;fill-rule:nonzero;stroke:none"
         id="path24" /><path
         d="m 1059.24,138.141 c -0.2,0.203 -0.5,0.504 -0.8,0.601 -0.3,0.199 -0.7,0.305 -1.2,0.305 -0.6,0 -0.9,-0.106 -1.5,-0.703 h -0.1 c -0.1,-0.203 -0.2,-0.5 -0.3,-0.797 -0.1,-0.305 -0.2,-0.602 -0.2,-0.906 0,-0.696 0.4,-1.395 1,-1.797 0.4,-0.301 1.1,-0.399 1.8,-0.399 0.7,0 1.4,0.098 1.7,0.7 0.3,0.398 0.4,0.8 0.4,1.199 0,0.402 -0.1,0.699 -0.3,1 0,0.097 -0.19,0.203 -0.3,0.402 0,0.199 -0.1,0.297 -0.2,0.395"
         style="fill:#231f20;fill-opacity:1;fill-rule:nonzero;stroke:none"
         id="path26" /><path
         d="m 1094.55,112.547 c -0.11,-0.203 -0.11,-0.203 -0.21,-0.305 -0.5,-0.398 -0.9,-0.801 -1.4,-1.199 -0.3,-0.301 -0.7,-0.5 -1,-0.797 -0.1,-0.101 -0.2,-0.101 -0.2,-0.101 -1.3,-1.004 -2.4,-1.801 -3.5,-2.399 -1.3,-0.703 -2.4,-1.199 -3.4,-1.402 -0.8,-0.301 -1.6,-0.399 -2.2,-0.399 -0.9,0 -1.7,0.2 -2.2,0.696 -0.5,0.504 -0.8,1.203 -0.8,2.101 0,2 1.1,4.602 3.8,8.203 1.11,1.5 2.4,2.899 3.7,4.098 0.8,0.801 1.7,1.504 2.7,2.098 1.3,0.8 2.8,1.304 4.2,1.304 0.9,0 1.8,-0.199 2.7,-0.601 0.5,-0.301 1,-0.703 1.4,-1.098 0.4,-0.305 0.7,-0.601 1.1,-1 0.5,-0.703 1.1,-1.5 1.6,-2.402 -1.29,-1.699 -2.7,-3.301 -4,-4.602 -0.4,-0.398 -0.8,-0.898 -1.3,-1.297 -0.3,-0.304 -0.6,-0.699 -0.99,-0.898 z m -153.109,9 c 1.797,1.898 3.7,3.195 5.301,4.094 1.602,0.8 3,1.203 4.102,1.203 0.293,0 0.691,-0.098 0.898,-0.203 0.196,-0.094 0.403,-0.297 0.598,-0.399 0.098,-0.097 0.098,-0.097 0.203,-0.199 v -0.098 c 0.098,-0.101 0.098,-0.203 0.098,-0.203 0.097,-0.101 0.097,-0.199 0.097,-0.297 0,0 0,0 0.098,0 0,-0.199 -0.098,-0.3 -0.195,-0.601 l -0.098,-0.102 c -0.105,-0.496 -0.496,-1 -1.102,-1.601 -1.796,-1.7 -5,-3.696 -8.496,-4.899 -1.41,-0.597 -2.804,-0.898 -4.199,-1.097 -0.305,0 -0.605,-0.102 -0.91,-0.102 1.105,1.801 2.402,3.203 3.605,4.504 z m -138.203,2.098 c -0.097,0.097 0,0.296 0.106,0.496 0.195,0.402 0.5,0.906 0.996,1.5 0.402,0.601 0.898,1.203 1.504,1.8 0.801,0.903 1.594,1.606 2.199,1.903 0.195,0 0.195,0 0.195,-0.098 0,-0.601 -2.902,-4.601 -5,-5.703 z m 343.602,-1.301 -0.6,-0.102 c -6.9,-1.898 -18.1,-11 -28.4,-18.797 -1.5,-1.203 -2.9,-2.3 -4.3,-3.3 -1.2,-0.8989 -2.3,-1.6997 -3.4,-2.3989 -2.1,-1.5039 -4.1,-2.9023 -6,-3.9023 -2.8,-1.5 -5.1,-2.5 -6.9,-2.5 h -0.19 c -1.41,0.0976 -2.41,1.6992 -2.41,4.5 v 0.7968 c -0.09,0.3047 0,0.7032 0.1,1.1055 0.1,0.7969 0.2,1.6992 0.5,2.6989 0.1,0.598 0.3,1.196 0.6,1.899 0.3,0.797 0.7,1.797 1.1,2.801 l 0.11,0.101 c 0.29,0.699 0.49,1.301 0.89,1.996 0.4,0.703 0.8,1.5 1.2,2.203 0.7,1.196 1.4,2.399 2,3.598 0,0.098 0.1,0.098 0.1,0.098 1.3,2.402 2.6,4.504 4,6.504 0.7,0.898 1.3,1.902 2,2.699 l 0.1,0.402 0.1,0.098 c 0,0.601 -0.7,1.402 -1.5,1.699 -0.3,0.102 -0.5,0.199 -0.8,0.199 -0.2,0 -0.4,0 -0.5,-0.097 -0.09,-0.102 -0.3,-0.102 -0.3,-0.301 h -0.1 l -1.9,-2.903 c -0.5,0.704 -1,1.305 -1.6,1.801 -0.5,0.5 -1,1.004 -1.5,1.403 -0.5,0.5 -1.1,0.898 -1.7,1.097 -0.1,0.102 -0.2,0.203 -0.4,0.203 -1,0.602 -2.1,0.801 -3.2,0.801 -0.9,0 -1.89,0 -2.7,-0.305 -3.5,-0.996 -6.4,-2.699 -8.6,-4.695 0,-0.105 -0.1,-0.199 -0.2,-0.199 -0.8,-0.305 -1.7,-0.805 -2.6,-1.301 -0.7,-0.504 -1.5,-0.902 -2.3,-1.402 -2.99,-1.899 -6.4,-4.301 -10,-6.699 -1.2,-0.801 -2.4,-1.602 -3.6,-2.403 -7.8,-5.199 -15.6,-10.0975 -20.3,-10.0975 -0.8,0 -1.5,0.0977 -2.1,0.4025 -0.3,0.199 -0.6,0.398 -0.9,0.695 -0.1,0.102 -0.2,0.203 -0.2,0.301 -0.7,0.801 -1,1.801 -1,3.098 0,1.601 0.5,3.703 1.4,5.8 0.8,2.204 2,4.602 3.4,6.903 1.4,2.297 2.9,4.597 4.4,6.699 1.5,2.098 3.1,4.004 4.4,5.504 l 0.1,0.199 0.2,0.399 c 0,0.898 -1,1.902 -2,1.902 0,0 -0.1,0 -0.2,-0.106 -0.1,0 -0.2,-0.097 -0.2,-0.097 -0.2,0 -0.3,-0.102 -0.4,-0.301 h -0.1 c -0.8,-0.898 -1.9,-2.301 -3,-3.898 -0.39,-0.504 -0.8,-1.102 -1.2,-1.7 -0.6,-0.8 -1.1,-1.601 -1.69,-2.5 -0.31,-0.504 -0.61,-1 -0.91,-1.504 -2.8,-1.699 -6.7,-4.597 -10.9,-7.898 -1.4,-1.102 -2.8,-2.199 -4.3,-3.297 -1.5,-1.105 -2.9,-2.203 -4.4,-3.203 v -0.098 c -2.2,-1.601 -4.4,-3.101 -6.6,-4.398 0,-0.106 0,-0.106 -0.1,-0.106 -1.1,-0.695 -2.2,-1.296 -3.3,-1.898 -1.6,-0.8008 -3.1,-1.4961 -4.6,-2 -1.5,-0.4024 -2.8,-0.6992 -4,-0.6992 -1.3,0 -2.4,0.3984 -3.3,1.0976 -2.702,2.1016 -3.699,6.6016 -3.699,11.3046 0,2.399 0.196,4.801 0.704,6.699 l 0.195,1.098 c 0,0.402 -0.305,0.918 -0.996,1.402 -0.41,0.282 -0.801,0.297 -1.297,0.297 0,0 -1.008,-0.097 -1.504,-0.297 -4.297,-1.203 -11.203,-7.203 -16.699,-12.804 l -1.797,-1.797 c -0.606,-0.598 -1.203,-1.199 -1.711,-1.801 -0.789,-0.801 -1.59,-1.602 -2.195,-2.402 -1.203,-1.1957 -2.004,-2.098 -2.598,-2.7972 0.992,2.0976 2.195,4.1992 3.398,6.2972 3.797,6.5 8.497,13.203 12.704,18.902 0.195,0.199 0.293,0.5 0.293,0.602 0,0.199 -0.098,0.296 -0.196,0.496 -0.207,0.203 -0.301,0.402 -0.496,0.504 -0.305,0.296 -0.703,0.5 -1.203,0.5 -0.398,0 -0.703,-0.098 -1.102,-0.602 -0.304,-0.402 -1.105,-1.598 -2.296,-3.398 -0.11,-0.102 -0.11,-0.102 -0.204,-0.2 -7.003,-5 -15.597,-10.699 -23.605,-14.8 h -0.098 c -1.797,-0.899 -3.593,-1.7 -5.3,-2.403 0,0 0,-0.097 -0.098,-0.097 -4.504,-1.801 -8.594,-3.004 -11.895,-3.004 h -0.703 c -0.597,0 -1.203,0.101 -1.699,0.203 -0.5,0.101 -1.105,0.301 -1.508,0.597 -0.398,0.2 -0.894,0.602 -1.09,1 -0.898,0.903 -1.3,2.204 -1.3,3.903 0,2.101 0.695,4.898 2.5,8.5 h 0.097 c 1.399,0.301 2.805,0.699 4.102,1.101 1.594,0.399 3.097,1 4.394,1.7 2.305,1 4.309,2.199 5.703,3.398 0.305,0.301 0.594,0.504 0.801,0.801 0.305,0.301 0.598,0.597 0.899,0.902 1.105,1.301 1.699,2.598 1.699,3.695 0,0.305 -0.098,0.704 -0.305,0.903 -0.191,0.301 -0.496,0.5 -0.797,0.797 -0.195,0.101 -0.402,0.203 -0.695,0.203 -0.703,0.301 -1.504,0.398 -2.402,0.398 h -0.801 c -0.195,0 -0.496,0 -0.801,-0.097 -0.098,0 -0.301,-0.102 -0.496,-0.102 -1.105,-0.199 -2.305,-0.598 -3.605,-1.199 -1.395,-0.703 -2.903,-1.703 -4.5,-3.098 -0.696,-0.601 -1.497,-1.402 -2.2,-2.203 -0.3,-0.199 -0.496,-0.496 -0.496,-0.699 l -0.097,-0.102 h -0.098 c -5.207,-2.898 -14.504,-10.5 -23.508,-16.797 -7.293,-5.1012 -14.394,-9.1989 -18.992,-9.1989 -0.402,0 -0.801,0 -1.203,0.0977 -0.399,0.1015 -0.703,0.2968 -1.004,0.3984 -0.899,0.4023 -1.699,0.8984 -2.5,1.6016 -0.695,0.7968 -1.301,1.7968 -1.895,3.0002 -0.304,0.601 -0.507,1.402 -0.703,2.203 -0.597,2.5 -0.898,5.898 -0.898,10.297 v 1.097 c 0,0.704 -0.207,1.204 -0.5,1.403 -0.301,0.199 -0.703,0.398 -1.297,0.398 -4.504,0 -17.805,-10.898 -21.203,-16.3982 2.695,7.0972 5.801,15.5002 8.996,22.4022 0,1 -0.598,1.395 -1.399,1.395 -0.398,0 -0.898,-0.098 -1.394,-0.196 -1.309,-0.398 -2.902,-1.101 -4.707,-2.203 -0.805,-0.496 -1.699,-1 -2.695,-1.601 v -0.094 c -5.5,-3.504 -12.305,-8.801 -17.805,-13.305 -1.699,-1.398 -3.203,-2.699 -4.5,-3.898 -0.695,-0.5 -1.399,-1.102 -2.004,-1.699 -0.594,-0.5005 -1.094,-1.0044 -1.492,-1.4028 -0.403,-0.2969 -0.703,-0.6016 -1.008,-0.8984 0.207,0.5 0.508,1 0.703,1.4023 0.402,0.8009 1.008,1.5979 1.504,2.4999 1.602,2.699 3.496,5.598 5.402,8.399 0.996,1.496 1.993,2.898 3.094,4.3 2.5,3.301 5,6.399 7.102,8.899 0.3,0.101 0.3,0.398 0.3,0.703 0,0.199 -0.097,0.496 -0.203,0.695 -0.195,0.199 -0.402,0.403 -0.597,0.602 -0.399,0.5 -0.899,0.699 -1.297,0.699 l -0.098,-0.098 c -0.109,0 -0.207,0 -0.402,-0.101 -0.106,-0.102 -0.301,-0.102 -0.399,-0.301 -0.8,-1 -1.699,-2 -2.609,-3.199 -0.398,-0.399 -0.691,-0.797 -0.996,-1.199 -0.399,-0.301 -0.801,-0.602 -1.199,-0.899 -0.305,-0.199 -0.703,-0.504 -1.203,-0.801 -0.899,-0.601 -1.895,-1.304 -2.997,-2.101 -5.703,-3.899 -13.398,-9.203 -20.898,-13.699 h -0.098 c -4.504,-2.7 -8.8,-5.102 -12.5,-6.6997 -1.41,-0.6015 -2.804,-1.1015 -4.004,-1.4023 -0.597,-0.1992 -1.203,-0.3985 -1.699,-0.3985 -0.304,-0.0976 -0.5,-0.2031 -0.801,-0.0976 h -0.597 c -0.606,0 -1.004,0 -1.406,0.0976 -1.297,0.3985 -1.7,1.0977 -1.7,2.4024 0,0.5937 0.098,1.1953 0.305,1.8984 0.195,0.6997 0.496,1.4997 0.898,2.3007 0.301,1 0.801,1.899 1.297,2.996 0,0 0.098,0 0.098,0.102 0.402,0.699 0.801,1.5 1.199,2.301 1.008,1.902 1.906,3.898 2.61,5.8 0.793,1.899 1.3,3.801 1.3,5.399 0,1.5 -0.402,2.898 -1.504,3.898 0.899,0.504 2.196,1.805 3.399,3.102 0.398,0.398 0.801,0.898 1.101,1.297 1.106,1.402 1.895,2.804 1.895,3.703 0,0.297 -0.098,0.5 -0.195,0.601 -0.203,0.2 -0.301,0.297 -0.594,0.399 h -0.109 l -0.594,0.203 c -0.5,0 -1.008,-0.106 -1.504,-0.305 -0.805,-0.297 -1.797,-0.898 -2.598,-1.5 -2.304,-1.898 -4.101,-4.695 -4.101,-6.898 0,-0.5 0.097,-1.098 0.496,-1.5 -0.594,-0.399 -1.199,-0.703 -1.895,-1.098 -1.902,-1 -3.906,-1.801 -6.101,-2.402 -0.996,-0.297 -2.102,-0.602 -3.203,-0.801 -0.5,-0.199 -0.903,-0.297 -1.399,-0.297 -4.101,-0.801 -8.496,-1.203 -13.203,-1.203 -4.793,0 -9.695,0.402 -14.891,0.898 5.692,10.704 13.094,22.805 21.297,34.801 1.094,1.703 2.403,3.5 3.594,5.199 3.203,4.602 6.504,9.102 9.805,13.5 5.898,7.903 11.906,15.403 17.597,22.102 0.207,0.199 0.403,0.398 0.703,0.602 1.106,1.402 2.297,2.8 3.497,4.101 2.304,2.598 4.503,5.098 6.601,7.301 l 1.301,1.297 c 1.004,1 1.406,1.898 1.406,2.601 0,0.297 -0.109,0.598 -0.305,0.7 -0.097,0.296 -0.3,0.402 -0.605,0.402 l -0.098,-0.106 c -0.195,0 -0.3,0 -0.496,-0.097 -0.195,0 -0.402,-0.102 -0.597,-0.199 -0.301,-0.102 -0.704,-0.403 -1.2,-0.899 h -0.109 c -0.195,-0.199 -0.293,-0.305 -0.398,-0.504 h -0.098 c -1.496,-1.5 -3,-2.996 -4.504,-4.597 0,0 0,0 -0.098,-0.098 -1.894,-2.004 -3.797,-4.004 -5.691,-6.106 v -0.097 c -1.602,-1.699 -3.012,-3.203 -4.406,-4.903 -1.7,-1.996 -3.399,-4 -5.098,-5.996 -3.301,-4.004 -6.504,-8.101 -9.707,-12.203 -7.996,-10.398 -15.496,-20.898 -21.895,-30.695 -2.5,-3.902 -4.902,-7.606 -7,-11.106 -3.3,-5.296 -6.203,-10.199 -8.398,-14.398 -5.996,0.902 -11.699,2.004 -17.707,3.301 -4.492,1 -9.09,2.203 -13.992,3.5 -1.602,0.402 -3.301,0.801 -5,1.301 6.797,5.597 14.695,12.402 23.203,19.902 1.094,0.996 2.293,1.996 3.496,3.094 0.594,0.504 1.199,1 1.797,1.601 7.898,6.899 16.199,14.305 24.5,21.5 5.598,4.703 11.105,9.5 16.504,14.004 2.695,2.301 5.402,4.496 8,6.598 3.992,3.097 7.801,6.101 11.394,8.898 0.098,0 0.098,0 0.098,0 0.703,0.5 1.406,1.004 2.004,1.5 v 0.102 c 1.101,0.699 2.098,1.5 3.105,2.199 0.692,0.504 1.395,1 2.098,1.5 2.102,1.504 4.199,2.898 6.203,4.203 0.098,0.098 0.289,0.199 0.496,0.297 2.102,1.402 4.102,2.598 5.996,3.703 2.903,1.594 5.5,2.797 7.805,3.598 0.801,0.297 1.297,0.601 1.504,0.898 0.098,0.102 0.098,0.199 0.098,0.199 h -0.098 c 0,0 -0.109,0.102 -0.207,0.2 -0.098,0 -0.305,0.105 -0.496,0.105 -0.403,0 -1.008,0 -1.699,-0.305 -3.801,-1.195 -8.606,-3.597 -14.004,-6.996 -3.496,-2.203 -7.102,-4.703 -10.996,-7.402 h -0.61 c 0.11,-0.199 0.11,-0.297 0.207,-0.402 -1.406,-1 -2.898,-2.098 -4.402,-3.196 -19.395,-14.504 -42.902,-35 -62.695,-52.402 -1.407,-1.199 -2.707,-2.301 -4.004,-3.496 -8.301,-7.301 -15.801,-13.902 -21.895,-19.102 -2.707,0.696 -5.508,1.496 -8.203,2.196 0,0 -0.098,0 -0.207,0 -5.496,1.504 -11.094,3.101 -16.797,4.804 -8.699,2.301 -17.598,4.801 -26.492,6.996 -3.012,0.801 -5.91,1.5 -8.906,2.204 -2.805,0.699 -5.703,1.3 -8.594,1.902 h -0.305 c -6.297,1.297 -12.5,2.5 -18.699,3.5 0,0 0,0 -0.098,0 -8.605,1.297 -17.004,2.195 -25.109,2.297 -1.301,0.097 -2.5,0.097 -3.801,0.097 -6.793,0 -13.394,-0.496 -19.695,-1.597 -0.703,-0.102 -1.395,-0.203 -2.098,-0.301 -3.605,-0.699 -7.004,-1.496 -10.402,-2.5 -6.797,-2 -13.203,-4.902 -19.199,-8.598 -0.399,-0.304 -0.594,-0.601 -0.594,-0.902 l -0.109,-0.098 c 0,-0.203 0,-0.304 0.207,-0.304 0,0 0.097,-0.098 0.195,-0.098 0.301,0 0.605,0.098 0.898,0.301 1.805,1.101 3.602,2.101 5.399,3.097 1.406,0.704 2.804,1.403 4.308,2.004 2.793,1.2 5.801,2.196 8.797,3.102 1.496,0.398 3,0.797 4.602,1.199 8.203,1.899 17,2.797 26.199,2.797 3.195,0 6.398,-0.098 9.699,-0.297 10.899,-0.601 22.098,-2.301 33.399,-4.605 0.097,0 0.097,0 0.097,0 5.106,-0.996 10.203,-2.196 15.301,-3.399 19.902,-4.801 39.699,-10.801 57.996,-15.695 -31.695,-28.004 -62.996,-54.2032 -90.797,-69.8009 -0.293,-0.1055 -0.5,-0.3047 -0.597,-0.5039 -0.098,-0.0977 -0.203,-0.2969 -0.203,-0.3984 l -0.098,-0.1016 c 0,-0.1016 0.098,-0.2969 0.203,-0.2969 0.098,-0.1015 0.195,-0.1015 0.402,-0.1015 0.196,0 0.293,0 0.399,0.1015 h 0.097 c 0.098,0 0.098,0 0.196,0 1.808,0.9961 3.508,1.9961 5.304,3.0977 0.094,0 0.094,0.1015 0.094,0.1015 2.903,1.6993 5.805,3.5 8.801,5.4024 24.805,15.8945 52.004,37.9961 78.906,61.7971 1.797,-0.5 3.496,-1 5.196,-1.399 11.808,-3.3 21.601,-5.601 32.402,-7.101 -4.004,-7.699 -7.402,-15.1995 -10.195,-22.5002 -1.903,-4.9024 -3.504,-9.6993 -4.707,-14.3008 -0.497,-1.4961 -0.899,-2.8985 -1.2,-4.3008 -1.496,-5.6016 -2.597,-10.9961 -3.3,-16.0977 -0.391,-2.5976 -0.696,-5 -0.793,-7.3984 -0.204,-2.3008 -0.301,-4.6055 -0.301,-6.8008 0,-6.8047 0.801,-12.4023 2.402,-16.8047 v -0.0937 c 0.098,-0.2031 0.289,-0.4024 0.496,-0.5039 0.196,-0.0977 0.403,-0.1992 0.598,-0.1992 0.398,0 1.004,0.1992 1.199,0.5 0.098,0.2031 0.098,0.2968 0.098,0.5 v 0.1015 l -0.098,0.3985 c -1.394,3.2968 -2.098,7.8007 -2.098,13.1992 0,9 2,20.5 5.801,33.1992 3.797,12.6992 9.5,26.5038 16.903,40.3988 l 3.593,-0.297 c 1.203,-0.102 2.403,-0.301 3.606,-0.301 2.293,-0.199 4.597,-0.301 6.797,-0.301 5.097,0 9.902,0.403 14.402,1.403 0.598,0.097 1.094,0.199 1.699,0.402 0.801,0.199 1.699,0.398 2.5,0.695 1.496,0.403 3,0.899 4.504,1.602 2.098,0.898 3.992,1.902 5.899,3 0.496,-0.5 0.691,-1.098 0.691,-1.899 0,-0.8 -0.195,-1.699 -0.398,-2.601 0,-0.102 -0.098,-0.301 -0.098,-0.399 -0.598,-1.902 -2.402,-5.101 -3.899,-8.5 -0.3,-0.601 -0.496,-1.101 -0.703,-1.699 -0.3,-0.601 -0.496,-1.105 -0.691,-1.703 -0.91,-2.199 -1.504,-4.4024 -1.504,-6.1992 0,-1.1993 0.301,-2.2969 0.992,-3.0977 0.207,-0.3047 0.403,-0.5039 0.707,-0.7031 0.399,-0.3008 0.899,-0.5 1.395,-0.6992 h 0.109 l 1.59,-0.2969 c 0.207,0 0.508,0 0.801,0.0976 0.207,-0.0976 0.508,0 0.801,0.1016 0.605,0 1.203,0.1992 1.808,0.3945 0,0 0,0 0.098,0 1.297,0.4024 2.691,0.9063 4.199,1.5039 0.098,0 0.098,0 0.098,0.0977 1.601,0.7031 3.394,1.6016 5.3,2.6016 1.797,1 3.704,2 5.704,3.1992 1.992,1.301 4.093,2.598 6.191,4 7.207,4.801 14.309,9.902 19.211,13.5 -4.609,-6.496 -9.406,-14.398 -12.305,-20.3985 -0.707,-1.3007 -1.203,-2.3984 -1.601,-3.5039 v -0.2968 -0.1016 c -0.098,-0.1992 -0.098,-0.2969 -0.098,-0.5 0,-0.2969 0.195,-0.5977 0.496,-0.6953 0.098,-0.1055 0.305,-0.1055 0.496,-0.1055 0.403,0 0.903,0.1055 1.106,0.4024 0.402,0.5 1.105,1.2031 2.004,2.0976 4.695,4.3047 14.695,13.0036 23.191,18.9996 1.105,0.801 2.207,1.504 3.301,2.102 l 0.109,0.102 c 0.996,0.699 1.992,1.296 2.899,1.699 0.996,0.601 1.894,1.097 2.695,1.402 -1.797,-2.902 -3.496,-7.203 -4.793,-11.301 -0.207,-0.8 -0.402,-1.601 -0.703,-2.304 -0.098,-0.496 -0.305,-0.996 -0.305,-1.5 -0.398,-1.594 -0.703,-2.996 -0.898,-4.2972 -0.098,-0.1993 -0.098,-0.3985 -0.098,-0.5977 -0.105,-0.3047 -0.105,-0.7031 -0.105,-1.0039 -0.098,-0.2969 -0.098,-0.6953 -0.098,-0.8984 0,-0.5977 0,-1.1016 0.203,-1.3985 0,-0.2031 0.098,-0.3047 0.293,-0.4023 0,-0.0977 0.207,-0.1992 0.402,-0.1992 0.203,0 0.797,0.2968 1.504,1.0976 0,0 1.199,1.4024 3.203,3.4024 l 1.2,1.1992 c 2.199,2.199 4.89,4.699 7.793,7 1.105,0.898 2.304,1.801 3.398,2.5 1.711,1.203 3.41,2.102 4.902,2.699 v -2.097 c 0,-3.801 0.305,-6.801 0.899,-9.102 0.207,-0.801 0.508,-1.5 0.703,-2.1992 0.598,-1.6016 1.398,-2.8985 2.305,-3.8008 1.398,-1.5 3.195,-2.1992 5.097,-2.5977 l 1.496,-0.2031 c 1.7,0 3.504,0.4023 5.399,1.1016 1.008,0.3007 2.004,0.7031 3.008,1.1992 1.992,0.8984 4.093,2.0039 6.191,3.3008 1.406,0.8007 2.805,1.7972 4.211,2.7032 0,0 0,0 0.098,0 0.691,0.598 1.492,1.098 2.293,1.594 1.105,0.906 2.304,1.703 3.398,2.5 2.102,1.601 4.309,3.203 6.309,4.804 0.097,0 0.097,0 0.097,0.098 3.098,2.301 5.996,4.602 8.496,6.5 0.801,0.602 1.602,1.199 2.403,1.699 -0.301,-0.398 -0.594,-0.797 -0.801,-1.301 -0.399,-0.496 -0.801,-1.097 -1.102,-1.699 -0.402,-0.695 -0.695,-1.398 -0.996,-2.199 -0.996,-2.301 -1.601,-4.801 -1.601,-7.199 0,-2.403 0.605,-4.598 2.097,-6 0.5,-0.6018 1.106,-1.0002 1.907,-1.2971 h 0.097 c 1.297,-0.6016 2.598,-0.9063 4.102,-0.9063 1.297,0 2.691,0.2032 4.199,0.5039 0.398,0 0.703,0.0977 0.992,0.1993 1.508,0.4023 3.012,0.8984 4.602,1.4022 0.109,0 0.109,0.098 0.109,0.098 1.895,0.699 3.895,1.601 5.996,2.5 0.703,0.398 1.395,0.699 2.098,1 h 0.098 v 0.097 c 7.609,3.805 15.703,9.102 22.707,14.2 -0.899,-1.395 -1.809,-2.895 -2.805,-4.496 -1.199,-1.899 -2.402,-3.903 -3.602,-5.899 -0.695,-1.199 -1.3,-2.301 -1.797,-3.301 -0.5,-1.101 -0.898,-2.101 -1.3,-3.004 -0.496,-0.898 -0.801,-1.7965 -1.106,-2.6988 -0.398,-0.7969 -0.691,-1.6992 -0.992,-2.5 v -0.5 c 0,-0.2969 0.098,-0.4961 0.301,-0.6953 0,-0.1055 0.097,-0.2031 0.195,-0.2031 0,-0.1016 0.207,-0.1016 0.305,-0.1993 0.097,-0.1015 0.301,-0.1015 0.398,-0.1015 l 0.696,0.3008 c 0.703,0.6992 1.597,1.7031 2.703,2.7031 2.101,2.1953 4.699,4.8941 7.695,7.6991 3.301,2.996 6.906,6.195 10.508,8.695 1.203,0.903 2.394,1.602 3.594,2.301 v -2.797 -0.402 c 0,-1.496 0.109,-3.102 0.304,-4.801 v -0.101 c 0.301,-1.7 0.594,-3.297 0.996,-4.899 0.203,-0.801 0.508,-1.601 0.907,-2.297 0.793,-1.3005 1.593,-2.4997 2.793,-3.5036 0.702,-0.4961 1.302,-0.8008 2.102,-1.0976 h 0.1 c 0.5,-0.1993 0.9,-0.3985 1.4,-0.3985 0.5,-0.2031 0.9,-0.2031 1.51,-0.2031 h 0.29 c 1,0 2.1,0.2031 3.2,0.5 1.1,0.3047 2.3,0.7031 3.6,1.3047 0.9,0.3984 1.8,0.7969 2.7,1.3945 1.4,0.7031 2.8,1.6016 4.3,2.4996 1.3,0.801 2.7,1.7 4,2.606 0.4,0.398 0.8,0.695 1.3,0.894 v 0.106 c 3.3,2.394 6.7,5 9.8,7.5 2.6,2.098 5.1,4.094 7.4,5.797 0.5,0.301 0.91,0.597 1.2,0.902 -2.9,-5.105 -5.29,-10.902 -5.29,-15.199 0,-0.703 0.09,-1.301 0.19,-1.902 0.1,-0.504 0.3,-1 0.5,-1.403 0.1,-0.297 0.2,-0.496 0.4,-0.695 0,-0.2032 0.2,-0.4025 0.3,-0.6017 0.1,-0.1992 0.3,-0.3047 0.4,-0.3984 0.4,-0.5039 0.9,-0.8047 1.4,-1.1016 0.7,-0.5039 1.7,-0.6015 2.5,-0.6015 4.6,0 11.4,3.8982 18.4,8.6012 1,0.602 1.9,1.297 2.9,1.899 v 0.101 c 5.9,4.098 11.8,8.496 16.2,11.102 -2.1,-2.902 -3.19,-6.102 -3.19,-8.801 0,-0.402 0,-0.902 0.09,-1.305 0.1,-0.8 0.4,-1.5 0.7,-2.097 0.1,-0.297 0.3,-0.602 0.6,-0.899 0.7,-0.898 1.7,-1.601 3.1,-1.804 0.4,-0.094 0.8,-0.094 1.2,-0.094 1.9,0 4.2,0.598 7.1,2.098 1.6,0.8 3.5,1.996 5.5,3.5 -0.5,-1.102 -1,-2.301 -1.4,-3.403 -1.3,-3.597 -2,-7.3006 -2,-10.2967 0,-0.5 0,-1.0039 0.11,-1.4023 0.09,-1.4024 0.39,-2.5 0.89,-3.3985 0,0 0,0 0,-0.1015 0.7,-1.1992 1.8,-1.9024 3.4,-1.9024 h 0.5 c 0.3,0 0.5,0 0.7,0.1055 0.2,0 0.5,0.0977 0.8,0.0977 0.5,0.1015 1.1,0.3007 1.7,0.5 1.2,0.5 2.5,1.1015 3.8,1.7968 1.8,1.0039 3.8,2.2032 5.8,3.7032 2.1,1.4023 4.3,3 6.5,4.7032 2.2,1.699 4.5,3.496 6.8,5.297 0.1,0 0.1,0 0.1,0.101 2.3,1.7 4.6,3.496 7,5.196 0,0 0,0.101 0.1,0.101 2.3,1.699 4.6,3.399 6.91,4.801 l 0.09,0.098 c 2.3,1.504 4.5,2.804 6.6,3.902 1.1,0.602 2.2,1.098 3.2,1.5 0.3,0.301 0.6,0.598 0.6,0.703 0,0.199 -0.1,0.297 -0.2,0.399 -0.1,0.097 -0.29,0.199 -0.5,0.199"
         style="fill:#231f20;fill-opacity:1;fill-rule:nonzero;stroke:none"
         id="path28" /><path
         d="m 1072.94,197.746 c -0.2,0 -0.5,0.395 -1.1,0.996 -0.6,0.703 -0.9,1 -1.1,1 l -28.9,-26.398 c 4.8,-9.602 12.3,-17.102 22.4,-22.5 10.1,-5.399 21.3,-8.098 33.7,-8.098 9.9,-0.101 18.5,1.395 26.1,4.695 h 0.1 c 2,0.801 3.9,1.805 5.7,2.903 1.5,0.801 2.9,1.699 4.2,2.699 9.5,7.004 14.2,15.801 14.2,26.402 0,8.102 -3.1,15.297 -9.3,21.7 -6.3,6.296 -13.9,11.601 -22.8,15.898 -8.9,4.199 -17.8,8.301 -26.59,12.203 -8.91,3.895 -16.41,8.399 -22.71,13.399 -6.2,5.101 -9.4,10.695 -9.4,16.601 0,6.699 3.3,12.195 9.8,16.395 6.5,4.3 14.9,6.504 25.2,6.504 10,0 18.6,-2.098 25.8,-6.2 7.1,-4.101 10.6,-8.902 10.5,-14.504 -0.1,-6.097 -5.1,-13.199 -14.8,-21.296 l 1.7,-1.805 23.91,21.305 c -4.11,8 -10.21,14.097 -18.41,18.496 -8.2,4.3 -17.7,6.504 -28.5,6.504 -13,0 -23.7,-2.899 -31.9,-8.903 -8.3,-5.898 -12.4,-13.301 -12.4,-22.297 0,-7.3 3,-13.8 9.1,-19.504 6.2,-5.8 13.6,-10.601 22.3,-14.597 8.7,-4 17.4,-7.903 26.1,-11.903 8.6,-3.996 16,-8.796 22.1,-14.496 6.2,-5.601 9.2,-12 9.2,-19.203 0,-8.199 -3.6,-15 -10.8,-20.398 -7.2,-5.399 -16.7,-8.098 -28.2,-8.098 -11.8,0 -21.9,2.598 -30.5,7.797 -8.6,5.199 -12.8,11.301 -12.7,18.199 0.1,7.5 6.1,16.403 18,26.504"
         style="fill:#231f20;fill-opacity:1;fill-rule:nonzero;stroke:none"
         id="path30" /><path
         d="m 898.844,145.047 h 40.097 v 0.797 l -32.406,2.699 c -3.094,0.398 -4.695,2.199 -4.695,5.301 v 117.699 l 75.598,-126.496 h 4.902 v 127.898 c 0,3.098 1.504,5.297 4.5,6.7 l 3.301,1.3 v 0.801 h -40.203 v -0.801 l 24.402,-2.703 c 3.203,-0.297 4.902,-2 4.902,-5.297 V 168.344 l -68.601,113.402 h -18.703 l -0.196,-1.203 1.496,-0.199 c 2.207,-0.403 4.102,-1.5 5.508,-3.5 v -123 c 0,-3 -1.504,-5.199 -4.504,-6.602 l -3.301,-1.398 v -0.797 h 3.094 4.809"
         style="fill:#231f20;fill-opacity:1;fill-rule:nonzero;stroke:none"
         id="path32" /></g></g></svg>
